<svg width="300" height="300" viewBox="0 0 300 300" fill="none" xmlns="http://www.w3.org/2000/svg">
<path d="M243.75 300H56.25C25.1813 300 0 274.819 0 243.75V56.25C0 25.1813 25.1813 0 56.25 0H243.75C274.819 0 300 25.1813 300 56.25V243.75C300 274.819 274.819 300 243.75 300Z" fill="#E3F8FA"/>
<path d="M203.192 192.782L152.273 163.498L173.489 151.296L203.192 168.378L232.896 151.296V175.699L203.192 192.782Z" fill="#26C6DA"/>
<path d="M152.215 221.77L67.38 173.014V148.636L152.215 197.392L181.907 180.549V204.705L152.215 221.77Z" fill="#26C6DA"/>
<path d="M67.38 148.902V124.498L97.0831 107.415C97.0831 107.415 129.873 126.197 148.003 136.7L126.786 148.902L97.0831 131.819L67.38 148.902Z" fill="#26C6DA"/>
<path d="M118.37 119.117V95.2264L148.062 78.1617L232.897 126.918V151.296L148.062 102.54L118.37 119.117Z" fill="#26C6DA"/>
</svg>
