<svg width="300" height="300" viewBox="0 0 300 300" fill="none" xmlns="http://www.w3.org/2000/svg">
<path d="M243.75 300H56.25C25.1813 300 0 274.819 0 243.75V56.25C0 25.1813 25.1813 0 56.25 0H243.75C274.819 0 300 25.1813 300 56.25V243.75C300 274.819 274.819 300 243.75 300Z" fill="#E3F8FA"/>
<path d="M150.028 111.488C128.756 111.488 111.544 128.728 111.544 149.972C111.544 171.234 128.784 188.456 150.028 188.456C171.3 188.456 188.513 171.216 188.513 149.972C188.513 128.7 171.272 111.488 150.028 111.488ZM150.028 174.956C136.228 174.956 125.044 163.772 125.044 149.972C125.044 136.172 136.228 124.987 150.028 124.987C163.828 124.987 175.013 136.162 175.013 149.972C175.013 163.772 163.828 174.956 150.028 174.956Z" fill="#26C6DA" fill-opacity="0.7"/>
<path d="M180.928 75.4687C167.128 74.8219 132.947 74.85 119.128 75.4687C106.988 76.0406 96.2813 78.975 87.6563 87.6C73.2281 102.028 75.075 121.462 75.075 149.972C75.075 179.147 73.4531 198.141 87.6563 212.344C102.131 226.819 121.856 224.925 150.028 224.925C184.556 224.925 222.338 228.234 224.531 180.872C225.178 167.063 225.15 132.891 224.531 119.081C223.294 92.7469 209.156 76.7812 180.928 75.4687V75.4687ZM202.763 202.8C193.303 212.259 180.188 211.416 149.831 211.416C118.584 211.416 106.05 211.875 96.9 202.706C86.3625 192.225 88.275 175.388 88.275 149.878C88.275 87.5344 91.8469 88.3312 149.738 88.3312L150.019 88.5188C212.1 88.5188 211.463 92.5406 211.463 149.972C211.472 180.853 212.063 193.463 202.763 202.8V202.8Z" fill="#26C6DA"/>
<path d="M190.041 108.959C195.006 108.959 199.031 104.934 199.031 99.9687C199.031 95.0034 195.006 90.9781 190.041 90.9781C185.075 90.9781 181.05 95.0034 181.05 99.9687C181.05 104.934 185.075 108.959 190.041 108.959Z" fill="#26C6DA" fill-opacity="0.7"/>
</svg>
