<svg width="300" height="300" viewBox="0 0 300 300" fill="none" xmlns="http://www.w3.org/2000/svg">
<path d="M243.75 300H56.25C25.1813 300 0 274.819 0 243.75V56.25C0 25.1813 25.1813 0 56.25 0H243.75C274.819 0 300 25.1813 300 56.25V243.75C300 274.819 274.819 300 243.75 300Z" fill="#E3F8FA"/>
<path d="M214.963 225L215 224.991V169.978C215 143.063 209.206 122.334 177.744 122.334C162.622 122.334 152.469 130.631 148.325 138.506H147.894V124.847H118.062V224.991H149.131V175.406C149.131 162.347 151.606 149.728 167.778 149.728C183.706 149.728 183.95 164.625 183.95 176.25V225H214.963Z" fill="#26C6DA" fill-opacity="0.7"/>
<path d="M67.475 124.856H98.5719V225H67.475V124.856Z" fill="#26C6DA"/>
<path d="M83.0094 75C73.0719 75 65 83.0719 65 93.0094C65 102.956 73.0719 111.188 83.0094 111.188C92.9469 111.188 101.019 102.956 101.019 93.0094C101.019 83.0719 92.9469 75 83.0094 75V75Z" fill="#26C6DA"/>
</svg>
