<svg width="300" height="300" viewBox="0 0 300 300" fill="none" xmlns="http://www.w3.org/2000/svg">
<path d="M243.75 300H56.25C25.1813 300 0 274.819 0 243.75V56.25C0 25.1813 25.1813 0 56.25 0H243.75C274.819 0 300 25.1813 300 56.25V243.75C300 274.819 274.819 300 243.75 300Z" fill="#E3F8FA"/>
<path d="M199.588 119.456C205.691 115.125 210.819 109.716 215 103.491V103.481C209.422 105.928 203.478 107.55 197.281 108.337C203.656 104.531 208.522 98.55 210.809 91.3406C204.866 94.8844 198.303 97.3875 191.309 98.7844C185.666 92.7844 177.622 89.0625 168.847 89.0625C151.822 89.0625 138.116 102.881 138.116 119.822C138.116 122.259 138.322 124.603 138.828 126.834C113.263 125.588 90.6406 113.334 75.4438 94.6687C72.7906 99.2719 71.2344 104.541 71.2344 110.212C71.2344 120.862 76.7187 130.303 84.8937 135.769C79.9531 135.675 75.1063 134.241 71 131.981V132.319C71 147.263 81.6594 159.675 95.6375 162.534C93.1344 163.219 90.4062 163.547 87.575 163.547C85.6062 163.547 83.6187 163.434 81.7531 163.022C85.7375 175.2 97.0438 184.153 110.488 184.444C100.025 192.628 86.7406 197.559 72.3594 197.559C69.8375 197.559 67.4187 197.447 65 197.137C78.6219 205.922 94.7656 210.938 112.175 210.938C166.437 210.938 201.809 165.666 199.588 119.456V119.456Z" fill="#26C6DA"/>
</svg>
