<?xml version="1.0" encoding="UTF-8" standalone="no"?>
<!-- Created with Inkscape (http://www.inkscape.org/) -->

<svg
   xmlns:i="http://ns.adobe.com/AdobeIllustrator/10.0/"
   xmlns:dc="http://purl.org/dc/elements/1.1/"
   xmlns:cc="http://creativecommons.org/ns#"
   xmlns:rdf="http://www.w3.org/1999/02/22-rdf-syntax-ns#"
   xmlns:svg="http://www.w3.org/2000/svg"
   xmlns="http://www.w3.org/2000/svg"
   xmlns:xlink="http://www.w3.org/1999/xlink"
   xmlns:sodipodi="http://sodipodi.sourceforge.net/DTD/sodipodi-0.dtd"
   xmlns:inkscape="http://www.inkscape.org/namespaces/inkscape"
   width="128"
   height="128"
   id="svg2"
   version="1.1"
   inkscape:version="0.48.0 r9654"
   sodipodi:docname="logo.svg"
   style="display:inline">
  <defs
     id="defs4">
    <linearGradient
       inkscape:collect="always"
       id="linearGradient5648">
      <stop
         style="stop-color:#d70751;stop-opacity:1;"
         offset="0"
         id="stop5650" />
      <stop
         style="stop-color:#d70751;stop-opacity:0;"
         offset="1"
         id="stop5652" />
    </linearGradient>
    <radialGradient
       inkscape:collect="always"
       xlink:href="#linearGradient5648"
       id="radialGradient5654"
       cx="421.89389"
       cy="952.36218"
       fx="421.89389"
       fy="952.36218"
       r="47.947132"
       gradientTransform="matrix(1,0,0,1.0468313,0,-44.600399)"
       gradientUnits="userSpaceOnUse" />
  </defs>
  <sodipodi:namedview
     id="base"
     pagecolor="#ffffff"
     bordercolor="#666666"
     borderopacity="1.0"
     inkscape:pageopacity="0.0"
     inkscape:pageshadow="2"
     inkscape:zoom="1.846"
     inkscape:cx="196.66189"
     inkscape:cy="104.6261"
     inkscape:document-units="px"
     inkscape:current-layer="layer1"
     showgrid="false"
     inkscape:window-width="1366"
     inkscape:window-height="695"
     inkscape:window-x="0"
     inkscape:window-y="24"
     inkscape:window-maximized="1" />
  <metadata
     id="metadata7">
    <rdf:RDF>
      <cc:Work
         rdf:about="">
        <dc:format>image/svg+xml</dc:format>
        <dc:type
           rdf:resource="http://purl.org/dc/dcmitype/StillImage" />
        <dc:title></dc:title>
      </cc:Work>
    </rdf:RDF>
  </metadata>
  <g
     inkscape:groupmode="layer"
     id="layer3"
     inkscape:label="logo"
     style="display:inline"
     transform="translate(0,-72)" />
  <g
     inkscape:label="debian storm"
     inkscape:groupmode="layer"
     id="layer1"
     transform="translate(0,-924.36218)"
     style="display:inline">
    <g
       id="g3042"
       transform="translate(-346.88272,36)">
      <rect
         y="972.80334"
         x="437.18677"
         height="0.72815531"
         width="2.4271846"
         id="rect3032"
         style="fill:#d70751;fill-opacity:1;stroke:none" />
      <g
         transform="matrix(1.0428153,0,0,1.0459718,-29.07468,-43.781801)"
         style="fill:#d70751;fill-opacity:1"
         id="g4021">
        <g
           style="fill:#d70751;fill-opacity:1"
           i:rgbTrio="#4F008000FFFF"
           i:dimmedPercent="50"
           i:layer="yes"
           id="Layer_1"
           transform="matrix(0.85498878,0.51864649,-0.51864649,0.85498878,409.55766,883.95108)">
          <g
             style="fill:#d70751;fill-opacity:1"
             id="g3043">
            <path
               id="path3045"
               d="m 51.986,57.297 c -1.797,0.025 0.34,0.926 2.686,1.287 0.648,-0.506 1.236,-1.018 1.76,-1.516 -1.461,0.358 -2.948,0.366 -4.446,0.229"
               i:knockout="Off"
               inkscape:connector-curvature="0"
               style="fill:#d70751;fill-opacity:1" />
            <path
               id="path3047"
               d="m 61.631,54.893 c 1.07,-1.477 1.85,-3.094 2.125,-4.766 -0.24,1.192 -0.887,2.221 -1.496,3.307 -3.359,2.115 -0.316,-1.256 -0.002,-2.537 -3.612,4.546 -0.496,2.726 -0.627,3.996"
               i:knockout="Off"
               inkscape:connector-curvature="0"
               style="fill:#d70751;fill-opacity:1" />
            <path
               id="path3049"
               d="m 65.191,45.629 c 0.217,-3.236 -0.637,-2.213 -0.924,-0.978 0.335,0.174 0.6,2.281 0.924,0.978"
               i:knockout="Off"
               inkscape:connector-curvature="0"
               style="fill:#d70751;fill-opacity:1" />
            <path
               id="path3051"
               d="m 45.172,1.399 c 0.959,0.172 2.072,0.304 1.916,0.533 1.049,-0.23 1.287,-0.442 -1.916,-0.533"
               i:knockout="Off"
               inkscape:connector-curvature="0"
               style="fill:#d70751;fill-opacity:1" />
            <path
               id="path3053"
               d="M 47.088,1.932 46.41,2.072 47.041,2.016 47.088,1.932"
               i:knockout="Off"
               inkscape:connector-curvature="0"
               style="fill:#d70751;fill-opacity:1" />
            <path
               id="path3055"
               d="m 76.992,46.856 c 0.107,2.906 -0.85,4.316 -1.713,6.812 l -1.553,0.776 c -1.271,2.468 0.123,1.567 -0.787,3.53 -1.984,1.764 -6.021,5.52 -7.313,5.863 -0.943,-0.021 0.639,-1.113 0.846,-1.541 -2.656,1.824 -2.131,2.738 -6.193,3.846 L 60.16,65.878 C 55.293524,68.167449 47.824261,63.94025 43.441445,59.398596 41.83489,57.733818 41.869588,63.032671 40.661668,60.920394 38.381264,56.932672 37.42012,46.942137 37.481638,42.658076 37.374638,43.467076 36.105,49.114 35.883,49.441 35.614973,46.041665 34.262501,37.677495 39.951364,35.810199 41.669632,35.2462 47.080762,28.756714 49.07617,27.459211 49.685893,27.062742 44.216105,33.912078 44.89,33.609 c 1.873403,-0.927411 3.314351,-2.437024 4.764505,-3.571704 0.35453,-0.277404 0.70961,-0.532398 1.071695,-0.750997 0.604503,-0.364953 1.293932,0.171094 1.946572,-0.181853 0.569275,-0.307863 1.427577,-1.852545 2.017396,-2.027046 1.301449,-0.385041 2.517101,-0.74296 3.532599,-0.849612 0.170013,-0.01786 -1.442353,-1.213665 -1.284097,-1.216383 1.360565,-0.02337 4.043576,1.736546 4.154498,3.57812 0.564531,-2.405922 -3.350143,-4.871128 -7.660891,-4.992456 -2.5688,-0.0723 -5.255073,1.819549 -7.28187,1.931194 -0.216247,0.0034 0.618414,-1.294442 3.192768,-2.498688 0.39681,-0.185622 -0.825769,0.0221 -2.158928,0.572006 -1.094892,0.451621 -2.249043,1.226209 -2.772982,1.415361 -6.066918,0.425779 -18.181877,10.374598 -13.748868,7.636286 0.461739,-0.285221 7.501729,-4.343939 3.341147,-0.883763 -0.432928,0.370715 4.843144,-1.463993 4.401533,-1.254899 -0.938581,0.444399 -1.169187,1.198026 -1.998807,1.732574 -0.25528,0.164484 -3.411405,0.784998 -3.65838,0.955411 -5.447734,3.758943 -5.924502,8.421412 -5.222848,11.100387 6.501641,-11.411132 3.648821,-4.274502 3.122519,-2.31168 -0.158281,0.590304 -0.03306,7.518183 -0.276858,7.71447 -0.351179,0.282736 -1.092714,-6.297352 -1.389269,-6.073501 -0.372558,2.738079 -0.250277,7.46323 0.279947,9.395058 0.213658,0.778445 0.50798,3.278864 1.677197,5.414267 0.251599,0.45951 0.674244,1.283648 1.025048,1.760253 1.660049,2.255351 4.608471,4.127531 4.987347,4.723757 0.715257,1.125578 -3.543213,-5.421467 -2.585086,-4.460331 1.993804,2.000064 4.494191,3.799094 7.420967,6.042216 1.225,0.826 2.641142,1.750548 2.807142,2.379548 -2.586,-1.211 -5.551416,-2.295311 -7.498416,-4.533311 1.033,1.512 1.824702,2.606182 3.265702,3.761182 -2.438,-0.826 -9.787469,-8.116028 -10.738469,-8.323028 1.668783,2.987769 7.810624,7.640824 11.654252,10.687892 0.376091,0.298149 -1.19005,-0.334467 -2.859506,-1.285086 -1.068041,-0.608162 -2.240728,-2.413328 -2.498493,-2.439957 -0.391782,-0.04048 1.28117,3.359868 2.885576,4.2928 1.269721,0.738319 3.788099,2.400311 6.072676,3.416921 1.316918,0.586013 2.669619,0.742314 3.369179,0.936641 -6.746083,-4.03954 -5.588511,-3.209566 -3.845139,-2.044498 0.790193,0.528073 1.916302,0.871009 2.103771,1.305401 0.283527,0.07095 0.312891,-0.571566 0.508713,-0.537321 1.930066,0.337523 8.491247,-1.488108 6.487212,-0.514523 -6.737748,3.273282 8.617994,-0.601094 8.768807,-0.639967 0.370382,-0.09547 -7.580023,0.330116 -7.229864,0.227318 C 56.42735,72.790165 57.627613,72.344745 58.416,72.015 55.303,72.13 52.646835,71.863045 49.148835,70.570045 47.679835,69.814045 44.383,68.464 44.74,68.171 c 2.394327,0.894417 6.87883,3.244923 11.252543,3.162344 0.949458,-0.01793 2.883512,0.336438 3.805844,0.176315 2.835006,-0.492177 4.563855,-5.121836 6.100859,-5.16437 1.9539,-0.05407 -3.990825,4.300467 -2.071325,3.572487 C 66.322372,68.971743 69.06826,66.230729 71.352,64.4 c 2.021,-1.574 4.229,-4.252 4.867,-4.289 -0.961,1.445 0.164,0.695 -0.574,1.971 2.014,-3.248 -0.875,-1.322 2.082,-5.609 l 1.092,1.504 c -0.406,-2.696 3.348,-5.97 2.967,-10.234 0.861,-1.304 0.961,1.403 0.047,4.403 1.268,-3.328 0.334,-3.863 0.66,-6.609 0.352,0.923 0.814,1.904 1.051,2.878 -0.826,-3.216 0.848,-5.416 1.262,-7.285 -0.408,-0.181 -1.275,1.422 -1.473,-2.377 0.029,-1.65 0.459,-0.865 0.625,-1.271 -0.324,-0.186 -1.174,-1.451 -1.691,-3.877 0.375,-0.57 1.002,1.478 1.512,1.562 -0.328,-1.929 -0.893,-3.4 -0.916,-4.88 -1.49,-3.114 -0.527,0.415 -1.736,-1.337 -1.586,-4.947 1.316,-1.148 1.512,-3.396 2.404,3.483 3.775,8.881 4.404,11.117 -0.48,-2.726 -1.256,-5.367 -2.203,-7.922 0.73,0.307 -1.176,-5.609 0.949,-1.691 C 83.519,18.706 76.074,10.902 69.225,7.24 70.063,8.007 71.121,8.97 70.741,9.121 67.335,7.093 67.934,6.935 67.446,6.078 64.671,4.949 64.489,6.169 62.651,6.08 57.421,3.306 56.413,3.601 51.6,1.863 l 0.219,1.023 c -3.465,-1.154 -4.037,0.438 -7.782,0.004 -0.228,-0.178 1.2,-0.644 2.375,-0.815 -3.35,0.442 -3.193,-0.66 -6.471,0.122 0.808,-0.567 1.662,-0.942 2.524,-1.424 -2.732,0.166 -6.522,1.59 -5.352,0.295 -4.456,1.988 -12.37,4.779 -16.811,8.943 l -0.14,-0.933 c -2.035,2.443 -8.874,7.296 -9.419,10.46 l -0.544,0.127 c -1.059,1.793 -1.744,3.825 -2.584,5.67 -1.385,2.36 -2.03,0.908 -1.833,1.278 -2.724,5.523 -4.077,10.164 -5.246,13.97 0.833,1.245 0.02,7.495 0.335,12.497 -1.368,24.704 17.338,48.69 37.785,54.228 2.997,1.072 7.454,1.031 11.245,1.141 -4.473,-1.279 -5.051,-0.678 -9.408,-2.197 -3.143,-1.48 -3.832,-3.17 -6.058,-5.102 l 0.881,1.557 c -4.366,-1.545 -2.539,-1.912 -6.091,-3.037 l 0.941,-1.229 C 28.751,98.334 26.418,96.056 25.78,94.795 l -1.548,0.061 c -1.86,-2.295 -2.851,-3.949 -2.779,-5.23 l -0.5,0.891 c -0.567,-0.973 -6.843,-8.607 -3.587,-6.83 -0.605,-0.553 -1.409,-0.9 -2.281,-2.484 l 0.663,-0.758 c -1.567,-2.016 -2.884,-4.6 -2.784,-5.461 0.836,1.129 1.416,1.34 1.99,1.533 -3.957,-9.818 -4.179,-0.541 -7.176,-9.994 L 8.412,66.472 C 7.926,65.74 7.631,64.945 7.24,64.165 l 0.276,-2.75 C 4.667,58.121 6.719,47.409 7.13,41.534 7.415,39.145 9.508,36.602 11.1,32.614 l -0.97,-0.167 c 1.854,-3.234 10.586,-12.988 14.63,-12.486 1.959,-2.461 -0.389,-0.009 -0.772,-0.629 4.303,-4.453 5.656,-3.146 8.56,-3.947 3.132,-1.859 -2.688,0.725 -1.203,-0.709 5.414,-1.383 3.837,-3.144 10.9,-3.846 0.745,0.424 -1.729,0.655 -2.35,1.205 4.511,-2.207 14.275,-1.705 20.617,1.225 7.359,3.439 15.627,13.605 15.953,23.17 l 0.371,0.1 c -0.188,3.802 0.582,8.199 -0.752,12.238 l 0.908,-1.912"
               i:knockout="Off"
               inkscape:connector-curvature="0"
               style="fill:#d70751;fill-opacity:1"
               sodipodi:nodetypes="ccccccccssccsscsssssscscsscscssscsscssssscccccssssscscsssscccssssccccccccccccccccccccccccccccccccccccccccccccccccccccccccccccccccccccccccc" />
            <path
               id="path3057"
               d="m 26.945293,58.43524 -0.252,1.26 c 1.181,1.604 2.118,3.342 3.626,4.596 -1.085,-2.118 -1.891,-2.993 -3.374,-5.856"
               i:knockout="Off"
               inkscape:connector-curvature="0"
               style="fill:#d70751;fill-opacity:1" />
            <path
               id="path3059"
               d="m 35.164,59.654 c -0.625,-0.691 -0.995,-1.523 -1.409,-2.352 0.396,1.457 1.207,2.709 1.962,3.982 l -0.553,-1.63"
               i:knockout="Off"
               inkscape:connector-curvature="0"
               style="fill:#d70751;fill-opacity:1" />
            <path
               id="path3061"
               d="m 84.568,48.916 -0.264,0.662 c -0.484,3.438 -1.529,6.84 -3.131,9.994 1.77,-3.328 2.915,-6.968 3.395,-10.656"
               i:knockout="Off"
               inkscape:connector-curvature="0"
               style="fill:#d70751;fill-opacity:1" />
            <path
               id="path3063"
               d="M 45.527,0.537 C 46.742,0.092 48.514,0.293 49.803,0 48.123,0.141 46.451,0.225 44.8,0.438 l 0.727,0.099"
               i:knockout="Off"
               inkscape:connector-curvature="0"
               style="fill:#d70751;fill-opacity:1" />
            <path
               id="path3065"
               d="m 2.872,23.219 c 0.28,2.592 -1.95,3.598 0.494,1.889 1.31,-2.951 -0.512,-0.815 -0.494,-1.889"
               i:knockout="Off"
               inkscape:connector-curvature="0"
               style="fill:#d70751;fill-opacity:1" />
            <path
               id="path3067"
               d="M 0,35.215 C 0.563,33.487 0.665,32.449 0.88,31.449 -0.676,33.438 0.164,33.862 0,35.215"
               i:knockout="Off"
               inkscape:connector-curvature="0"
               style="fill:#d70751;fill-opacity:1" />
            <path
               style="fill:#d70751;fill-opacity:1"
               inkscape:connector-curvature="0"
               i:knockout="Off"
               d="m 27.47627,65.066837 c -2.272328,-0.851051 0.893912,1.82781 4.056689,3.643806 0.571652,-0.583131 1.064027,-1.206916 1.482007,-1.837535 -1.679118,-0.0872 -3.565772,-0.814159 -5.538696,-1.806271"
               id="path3087" />
          </g>
        </g>
      </g>
    </g>
  </g>
</svg>
