<?xml version="1.0" encoding="UTF-8" standalone="no"?>
<svg version="1.1" xmlns="http://www.w3.org/2000/svg" viewBox="-1 -1 312.67 338.76">
	<g transform="translate(-358.84 -513.08)">
		<g fill-rule="evenodd" fill="#47848f" transform="matrix(2.2563 0 0 2.2563 356.02 510.63)">
			<g transform="translate(0.7 0.4)">
				<path d="m49.127 32.768c-19.504-3.5524-34.925 0.16566-41.071 10.811-4.5864 7.9438-3.2754 18.476 3.1794 29.734 0.5494 0.95825 1.7716 1.2897 2.7298 0.74029 0.95825-0.5494 1.2897-1.7716 0.74029-2.7298-5.8148-10.141-6.9462-19.231-3.186-25.744 5.1056-8.8432 18.861-12.16 36.891-8.8758 1.0867 0.19792 2.1281-0.52257 2.326-1.6093 0.19792-1.0867-0.52257-2.1281-1.6093-2.326zm-27.75 54.23c7.8864 8.6665 18.132 16.795 29.817 23.541 28.293 16.335 58.412 20.701 73.256 10.579 0.91261-0.62227 1.148-1.8665 0.5257-2.7792-0.62227-0.9126-1.8665-1.148-2.7791-0.5257-13.285 9.0587-41.897 4.9112-69.003-10.738-11.335-6.55-21.256-14.421-28.858-22.775-0.744-0.816-2.008-0.876-2.825-0.133-0.81695 0.74341-0.87657 2.0083-0.13316 2.8253z"/>
				<path d="m119.72 84.565c12.771-15.087 17.23-30.261 11.096-40.884-4.5131-7.817-14.054-11.944-26.734-12.109-1.1045-0.01436-2.0115 0.86935-2.0258 1.9738-0.0144 1.1045 0.86935 2.0115 1.9738 2.0258 11.404 0.14831 19.623 3.7038 23.322 10.109 5.0946 8.8241 1.118 22.356-10.685 36.3-0.71365 0.84307-0.60874 2.105 0.23433 2.8187 0.84308 0.71366 2.105 0.60874 2.8187-0.23433zm-32.826-51.131c-11.547 2.474-23.837 7.311-35.641 14.126-29.207 16.862-48.259 41.727-45.613 59.76 0.16039 1.0929 1.1764 1.8488 2.2692 1.6884 1.0929-0.1604 1.8488-1.1764 1.6884-2.2692-2.3495-16.013 15.71-39.582 43.655-55.716 11.45-6.611 23.351-11.295 34.479-13.679 1.0801-0.23141 1.768-1.2946 1.5366-2.3746-0.23141-1.0801-1.2946-1.768-2.3746-1.5366z"/>
				<path d="m39.578 119.81c6.6772 18.645 17.601 30.125 29.885 30.125 8.9586 0 17.247-6.1068 23.71-16.858 0.5691-0.94668 0.26301-2.1755-0.68367-2.7446s-2.1755-0.26301-2.7446 0.68367c-5.8085 9.6623-12.943 14.919-20.282 14.919-10.204 0-19.947-10.239-26.119-27.473-0.37241-1.0399-1.5173-1.581-2.5572-1.2086-1.0399 0.37241-1.581 1.5173-1.2086 2.5572zm60.991-3.6472c3.4566-11.046 5.3132-23.789 5.3132-37.068 0-33.134-11.597-61.697-28.115-69.031-1.0095-0.44826-2.1913 0.0067-2.6395 1.0163-0.44826 1.0095 0.0067 2.1913 1.0163 2.6395 14.732 6.5415 25.738 33.649 25.738 65.376 0 12.882-1.7979 25.223-5.1306 35.873-0.32988 1.0542 0.25727 2.1762 1.3114 2.506 1.0542 0.32988 2.1761-0.25727 2.506-1.3114z"/>
				<path d="m138.24 114.21c0-5.2867-4.2857-9.5723-9.5723-9.5723-5.2867 0-9.5724 4.2857-9.5724 9.5723 0 5.2867 4.2857 9.5724 9.5724 9.5724 5.2866 0 9.5723-4.2857 9.5723-9.5724zm-4 0c0 3.0775-2.4948 5.5724-5.5723 5.5724s-5.5724-2.4948-5.5724-5.5724c0-3.0775 2.4948-5.5723 5.5724-5.5723 3.0775 0 5.5723 2.4948 5.5723 5.5723z"/>
				<path d="m10.123 123.78c5.2867 0 9.5723-4.2857 9.5723-9.5724s-4.2857-9.5723-9.5723-9.5723c-5.2867 0-9.5723 4.2857-9.5723 9.5723 0 5.2867 4.2857 9.5724 9.5723 9.5724zm0-4c-3.0775 0-5.5723-2.4948-5.5723-5.5724 0-3.0775 2.4948-5.5723 5.5723-5.5723s5.5723 2.4948 5.5723 5.5723-2.4948 5.5724-5.5723 5.5724z"/>
				<path d="m69.463 19.833c5.2867 0 9.5723-4.2857 9.5723-9.5723 0-5.2867-4.2857-9.5723-9.5723-9.5723-5.2867 0-9.5723 4.2857-9.5723 9.5723 0 5.2867 4.2857 9.5723 9.5723 9.5723zm0-4c-3.0775 0-5.5723-2.4948-5.5723-5.5723s2.4948-5.5723 5.5723-5.5723 5.5723 2.4948 5.5723 5.5723-2.4948 5.5723-5.5723 5.5723z"/>
				<path d="m70.925 85.87c-3.7388 0.80784-7.4224-1.5683-8.2318-5.3071-0.80626-3.7388 1.5683-7.4224 5.3071-8.2318 3.7388-0.80784 7.4224 1.5683 8.2318 5.3071 0.80784 3.7388-1.5683 7.4224-5.3071 8.2318z"/>
			</g>
		</g>
	</g>
</svg>
