<svg xmlns="http://www.w3.org/2000/svg" xmlns:xlink="http://www.w3.org/1999/xlink" version="1.1" id="Layer_1" x="0px" y="0px" viewBox="0 0 48 48" style="fill: rgb(0, 0, 0);" xml:space="preserve" width="50" height="50">
<path style="fill:#5D4037;" d="M42,17.3C42,37.8,24,44,24,44S6,37.8,6,17.3c0-2.5,0.2-4.6,0.4-6.3c0.3-2.5,2-4.5,4.4-5.1  C13.9,5,18.8,4,24,4s10.1,1,13.3,1.9c2.4,0.6,4.1,2.7,4.4,5.1C41.8,12.7,42,14.9,42,17.3z"/>
<path style="fill:#4CAF50;" d="M24,7c4.9,0,9.5,1,12.5,1.8c1.2,0.3,2,1.3,2.2,2.6c0.2,1.9,0.3,3.9,0.3,5.9c0,15.6-11.5,21.9-15,23.4  c-3.5-1.6-15-7.9-15-23.4c0-2,0.1-4,0.3-5.9c0.1-1.3,1-2.3,2.2-2.6C14.5,8,19.1,7,24,7 M24,4c-5.2,0-10.1,1-13.3,1.9  C8.4,6.5,6.6,8.6,6.4,11C6.2,12.7,6,14.9,6,17.3C6,37.8,24,44,24,44s18-6.2,18-26.7c0-2.5-0.2-4.6-0.4-6.3c-0.3-2.5-2-4.5-4.4-5.1  C34.1,5,29.2,4,24,4L24,4z"/>
<rect x="23" y="28" style="fill:#DCEDC8;" width="2" height="8"/>
<path style="fill:#4CAF50;" d="M24,10c0,0-6,5-6,13c0,5.2,3.3,8.5,5,10l1-3l1,3c1.7-1.5,5-4.8,5-10C30,15,24,10,24,10z"/>
<path style="fill:#81C784;" d="M24,10c0,0-6,5-6,13c0,5.2,3.3,8.5,5,10l1-3V10z"/>
</svg>