<?xml version="1.0"?>
<svg xmlns="http://www.w3.org/2000/svg" height="512px" viewBox="0 0 512 512" width="512px"><path d="m512 196h-40v-39h-40v-157h-353v157h-39v39h-40v40h40v216c0 33.085938 26.914062 60 60 60h312c33.085938 0 60-26.914062 60-60v-216h40zm-120-156v156h-68.445312c-10.617188 0-20.210938 5.4375-25.664063 14.546875-5.453125 9.105469-5.714844 20.132813-.703125 29.488281l6.410156 11.964844h-93.664062l6.421875-11.601562c5.183593-9.363282 5.03125-20.457032-.402344-29.675782s-15.066406-14.722656-25.769531-14.722656h-71.183594v-156zm20 432h-312c-11.027344 0-20-8.972656-20-20v-216h93.070312l-6.425781 11.601562c-5.179687 9.363282-5.03125 20.457032.402344 29.675782s15.066406 14.722656 25.769531 14.722656h127.628906c10.617188 0 20.210938-5.4375 25.664063-14.546875 5.453125-9.105469 5.714844-20.132813.703125-29.488281l-6.410156-11.964844h91.597656v216c0 11.027344-8.972656 20-20 20zm-282-75h40v40h-40zm70 0h40v40h-40zm70 0h40v40h-40zm70 0h40v40h-40zm-210-70h40v40h-40zm70 0h40v40h-40zm70 0h40v40h-40zm70 0h40v40h-40zm0 0" fill="#FFFFFF"/></svg>
