<?xml version="1.0" encoding="utf-8"?>
<!-- Generator: Adobe Illustrator 22.0.1, SVG Export Plug-In . SVG Version: 6.00 Build 0)  -->
<svg version="1.1" id="Capa_1" xmlns="http://www.w3.org/2000/svg" xmlns:xlink="http://www.w3.org/1999/xlink" x="0px" y="0px"
	 viewBox="0 0 483.9 483.9" style="enable-background:new 0 0 483.9 483.9;" xml:space="preserve">
<style type="text/css">
	.st0{fill:#F5F5F5;}
</style>
<g>
	<path class="st0" d="M483.9,112.3h-26.7c-7,0-25.1,7.6-25.1,14v233.5c0,6.4,18.2,11.7,25.1,11.7h26.7v51.8H311.1v-51.8h34.6V129.6
		h-6l-83.2,293.7H192l-82.1-293.7h-6.2v241.9h34.6v51.8H0v-51.8h19.2c7.5,0,15.4-5.3,15.4-11.7V126.3c0-6.4-7.9-14-15.4-14H0V60.5
		h179.2l58.5,207.3h1.6l59.1-207.3h185.6V112.3z"/>
</g>
</svg>
