<?xml version="1.0" encoding="utf-8"?>
<!-- Generator: Adobe Illustrator 22.0.1, SVG Export Plug-In . SVG Version: 6.00 Build 0)  -->
<svg version="1.1" id="Capa_1" xmlns="http://www.w3.org/2000/svg" xmlns:xlink="http://www.w3.org/1999/xlink" x="0px" y="0px"
	 viewBox="0 0 547.6 547.6" style="enable-background:new 0 0 547.6 547.6;" xml:space="preserve">
<style type="text/css">
	.st0{fill:#F5F5F5;}
</style>
<g>
	<g>
		<path class="st0" d="M140.8,475.1L140.8,475.1l189.9-0.3c8.4,0,15.3-6.9,15.3-15.3v-21.3c0-8.4-6.9-15.3-15.3-15.3l-189.9,0.3
			c-8.4,0-15.3,6.9-15.3,15.3v21.3C125.5,468.3,132.4,475.1,140.8,475.1z"/>
		<path class="st0" d="M58.7,517.9c0.1,29.3,0.1,29.4,3.1,29.4c0,0,0,0,0.1,0l10.6,0.3c0,0,0.1,0,0.1,0c0,0,85.8,0,171.6,0
			c42.9,0,85.8,0,118-0.1c16.1,0,29.5,0,38.9-0.1c17.8-0.1,17.8-0.1,17.8-3.1l0.3-10.7V333.3c0-8.4-6.9-15.3-15.3-15.3h-11.9
			c-8.4,0-15.3,6.9-15.3,15.3v162.9c0,5.1-4.1,9.2-9.2,9.2H110.5c-5.1,0-9.2-4.1-9.2-9.2V333.3c0-8.4-6.9-15.3-15.3-15.3H73.8
			c-8.4,0-15.3,6.9-15.3,15.3c0,23.3,0,76.1,0.1,123C58.6,479.7,58.6,501.7,58.7,517.9z"/>
		<path class="st0" d="M142.3,397.4l189.4,17.5c0.5,0,0.9,0.1,1.4,0.1c8,0,14.5-6,15.2-13.9l1.8-21.1c0.7-8.4-5.5-15.9-13.9-16.6
			l-189.1-17.5c-8.6-0.8-15.9,5.4-16.7,13.8l-2,21.1c-0.4,4.1,0.8,8,3.5,11.2C134.6,395.1,138.3,397,142.3,397.4z"/>
		<path class="st0" d="M437.6,208.8c1.3,7.3,7.6,12.7,15,12.7c0.9,0,1.8-0.1,2.6-0.2l21.1-3.7c8.3-1.5,13.9-9.4,12.5-17.7
			L456.3,12.7c-1.4-8.2-9.2-13.9-17.7-12.4l-21.1,3.7c-8.3,1.5-13.9,9.4-12.5,17.7L437.6,208.8z"/>
		<path class="st0" d="M190.3,194.4l163.6,96.7c2.4,1.4,5,2.1,7.8,2.1c5.4,0,10.4-2.9,13.2-7.5l10.9-18.4c2.1-3.5,2.7-7.6,1.7-11.6
			c-1-4-3.5-7.3-7-9.4l-163.6-96.7c-7-4.1-16.8-1.6-21,5.4L185,173.4c-2.1,3.5-2.7,7.6-1.7,11.6C184.3,189,186.8,192.3,190.3,194.4z
			"/>
		<path class="st0" d="M387.5,240.5c2.9,4.2,7.6,6.7,12.6,6.7c3.1,0,6.1-0.9,8.6-2.7l17.4-11.9c7-4.8,8.8-14.3,4-21.3L323.3,54.1
			c-4.6-6.7-14.5-8.6-21.2-4l-17.7,12.2c-6.9,4.8-8.7,14.3-4,21.3L387.5,240.5z"/>
		<path class="st0" d="M154.5,302.3l183.5,49.2c1.3,0.3,2.6,0.5,4,0.5c6.9,0,13-4.7,14.8-11.3l5.5-20.6c2.2-8.2-2.7-16.6-10.8-18.7
			l-183.5-49.2c-8-2.1-16.6,2.9-18.7,10.8l-5.5,20.6C141.5,291.7,146.3,300.1,154.5,302.3z"/>
	</g>
</g>
</svg>
